<?xml version="1.0" encoding="utf-8"?>
<!-- Generator: Adobe Illustrator 19.0.0, SVG Export Plug-In . SVG Version: 6.00 Build 0)  -->
<svg version="1.1" id="Layer_1" xmlns="http://www.w3.org/2000/svg" xmlns:xlink="http://www.w3.org/1999/xlink" x="0px" y="0px"
	 viewBox="0 0 73.8 40.8" style="enable-background:new 0 0 73.8 40.8;" xml:space="preserve">
<style type="text/css">
	.st0{stroke:#000000;stroke-width:0.25;stroke-miterlimit:10;}
	.st1{fill:#FCF8FF;stroke:#000000;stroke-width:0.25;stroke-miterlimit:10;}
	.st2{fill:#FFFFFF;stroke:#000000;stroke-width:0.25;stroke-miterlimit:10;}
</style>
<g id="XMLID_55_">
	<path id="XMLID_56_" class="st0" d="M7.1,6.8h5.3l-1.1,6.6H9.6l-0.1-1.3c-0.7,1-1.8,1.6-3.3,1.6c-1.1,0-2-0.2-2.7-0.7
		S2.3,11.8,2,11.1c-0.4-0.7-0.6-1.6-0.6-2.6c0-2,0.6-3.8,1.7-5.2s2.7-2.2,4.6-2.2c2.7,0,4.4,1.3,5.1,3.9L9.4,5.5
		C9.2,4.4,8.6,3.9,7.6,3.9c-0.9,0-1.5,0.5-1.9,1.6S5.2,7.7,5.2,8.7c0,1.4,0.6,2.1,1.7,2.1c0.9,0,1.5-0.5,1.8-1.5h-2L7.1,6.8z"/>
	<path id="XMLID_58_" class="st1" d="M14.1,4.5h3l-0.4,2.1c0.6-1.6,1.6-2.4,2.8-2.4c0.1,0,0.2,0,0.4,0l-0.4,3.2c-0.3,0-0.5,0-0.6,0
		c-0.7,0-1.3,0.2-1.6,0.5c-0.3,0.3-0.6,0.9-0.7,1.8L16,13.4h-3.4L14.1,4.5z"/>
	<path id="XMLID_60_" class="st1" d="M23.9,13.6c-1.2,0-2.3-0.4-3.1-1.1s-1.3-1.7-1.3-3C19.5,8,20,6.7,21,5.8s2.2-1.5,3.7-1.5
		c1.4,0,2.4,0.4,3.2,1.2s1.2,1.7,1.2,2.9c0,1.7-0.5,3-1.5,3.9S25.3,13.6,23.9,13.6z M24,11.5c0.6,0,1-0.5,1.3-1.4s0.3-1.7,0.3-2.3
		c0-0.9-0.3-1.4-1-1.4c-0.6,0-1,0.5-1.3,1.4S23,9.5,23,10.1C23,11,23.3,11.5,24,11.5z"/>
	<path id="XMLID_63_" class="st1" d="M35.3,9.9l2.7,0.7c-0.5,1.1-1.1,1.9-1.9,2.4s-1.6,0.7-2.4,0.7c-1.2,0-2.2-0.4-3-1.2
		c-0.8-0.8-1.2-1.8-1.2-3c0-1.4,0.5-2.6,1.4-3.7s2.1-1.6,3.6-1.6c1.1,0,2,0.3,2.8,1s1.1,1.5,1.1,2.5l-3,0.4c0-1-0.3-1.4-1-1.4
		c-0.6,0-1,0.4-1.2,1.2s-0.4,1.5-0.4,2.1c0,0.9,0.3,1.3,1,1.3C34.6,11.2,35,10.8,35.3,9.9z"/>
	<path id="XMLID_65_" class="st1" d="M48,9.6h-6.1c0,0.2,0,0.4,0,0.5c0,0.4,0.1,0.7,0.4,0.9s0.6,0.3,0.9,0.3c0.7,0,1.2-0.4,1.5-1.1
		l3,0.5c-0.4,0.9-1,1.6-1.9,2.1c-0.9,0.5-1.8,0.8-2.9,0.8c-1.3,0-2.4-0.4-3.2-1.1s-1.2-1.8-1.2-3.1c0-1.4,0.5-2.6,1.5-3.6
		s2.2-1.5,3.8-1.5c1.3,0,2.4,0.4,3.2,1.2s1.2,1.8,1.2,3.1C48.1,8.9,48,9.2,48,9.6z M44.8,7.9c0-0.2,0-0.3,0-0.4
		c0-0.3-0.1-0.6-0.3-0.8S44,6.3,43.7,6.3c-0.4,0-0.7,0.1-1,0.4s-0.5,0.7-0.6,1.2H44.8z"/>
	<path id="XMLID_68_" class="st1" d="M49.7,4.5h3l-0.4,2.1c0.6-1.6,1.6-2.4,2.8-2.4c0.1,0,0.2,0,0.4,0l-0.4,3.2c-0.3,0-0.5,0-0.6,0
		c-0.7,0-1.3,0.2-1.6,0.5c-0.3,0.3-0.6,0.9-0.7,1.8l-0.6,3.6h-3.4L49.7,4.5z"/>
	<path id="XMLID_70_" class="st1" d="M64.5,4.5l-4.2,9c-0.6,1.3-1.3,2.2-1.9,2.5s-1.4,0.5-2.3,0.5c-0.5,0-0.9,0-1.4-0.1l0-2.4
		c0.7,0.1,1.3,0.1,1.7,0.1c0.9,0,1.4-0.2,1.4-0.7c0-0.1,0-0.3-0.1-0.6l-2.1-8.3H59l0.8,3.6c0.1,0.6,0.2,1,0.2,1.1
		C60,9.1,60.1,9,60.2,8.8c0.1-0.2,0.1-0.3,0.2-0.5l1.8-3.8H64.5z"/>
	<path id="XMLID_72_" class="st0" d="M10.3,23.6l-0.5,2.8H1l2-12h8.6L11.2,17H6l-0.3,1.9h4.3l-0.4,2.6H5.3L5,23.6H10.3z"/>
	<path id="XMLID_74_" class="st2" d="M12.2,17.5h3L15,18.9c0.7-1.1,1.6-1.6,2.7-1.6c1.1,0,1.9,0.5,2.3,1.6c0.6-1.1,1.5-1.6,2.7-1.6
		c0.8,0,1.4,0.2,1.9,0.7s0.7,1,0.7,1.8c0,0.2,0,0.5-0.1,0.9l-1,5.8h-3.4l0.9-5.3c0-0.3,0.1-0.5,0.1-0.6c0-0.5-0.2-0.8-0.7-0.8
		c-0.3,0-0.5,0.1-0.7,0.3c-0.2,0.2-0.3,0.6-0.4,1.2L19,26.4h-3.3l0.9-5.3c0.1-0.3,0.1-0.6,0.1-0.7c0-0.3-0.1-0.5-0.2-0.6
		c-0.2-0.1-0.3-0.2-0.5-0.2c-0.2,0-0.4,0.1-0.6,0.2c-0.2,0.1-0.4,0.5-0.5,1.2L14,26.4h-3.3L12.2,17.5z"/>
	<path id="XMLID_76_" class="st2" d="M30.5,17.5L29,26.4h-3.4l1.5-8.9H30.5z M31,14.1l-0.4,2.6h-3.4l0.4-2.6H31z"/>
	<path id="XMLID_79_" class="st2" d="M39.2,19.6l-2.6,0.6c-0.2-0.6-0.7-0.9-1.6-0.9c-0.6,0-0.9,0.2-0.9,0.5c0,0.3,0.3,0.5,0.9,0.6
		c1.2,0.2,2.1,0.4,2.6,0.7c0.5,0.3,0.9,0.6,1.1,1c0.3,0.4,0.4,0.8,0.4,1.3c0,0.9-0.4,1.6-1.1,2.3c-0.7,0.6-1.9,0.9-3.4,0.9
		c-1.1,0-2.1-0.2-3-0.7s-1.4-1.1-1.6-2l2.8-0.4c0.2,0.6,0.8,1,1.9,1c0.4,0,0.7-0.1,0.9-0.2s0.3-0.2,0.3-0.4c0-0.1-0.1-0.2-0.2-0.3
		s-0.5-0.2-1-0.3c-1-0.2-1.8-0.4-2.2-0.6c-0.4-0.2-0.8-0.5-1.1-0.9c-0.3-0.4-0.5-0.9-0.5-1.4c0-0.9,0.4-1.7,1.1-2.2
		c0.7-0.6,1.7-0.9,2.9-0.9c1.1,0,2.1,0.2,2.9,0.6S39,18.9,39.2,19.6z"/>
	<path id="XMLID_81_" class="st2" d="M48.1,19.6l-2.6,0.6c-0.2-0.6-0.7-0.9-1.6-0.9c-0.6,0-0.9,0.2-0.9,0.5c0,0.3,0.3,0.5,0.9,0.6
		c1.2,0.2,2.1,0.4,2.6,0.7c0.5,0.3,0.9,0.6,1.1,1c0.3,0.4,0.4,0.8,0.4,1.3c0,0.9-0.4,1.6-1.1,2.3c-0.7,0.6-1.9,0.9-3.4,0.9
		c-1.1,0-2.1-0.2-3-0.7s-1.4-1.1-1.6-2l2.8-0.4c0.2,0.6,0.8,1,1.9,1c0.4,0,0.7-0.1,0.9-0.2s0.3-0.2,0.3-0.4c0-0.1-0.1-0.2-0.2-0.3
		s-0.5-0.2-1-0.3c-1-0.2-1.8-0.4-2.2-0.6c-0.4-0.2-0.8-0.5-1.1-0.9c-0.3-0.4-0.5-0.9-0.5-1.4c0-0.9,0.4-1.7,1.1-2.2
		c0.7-0.6,1.7-0.9,2.9-0.9c1.1,0,2.1,0.2,2.9,0.6S47.9,18.9,48.1,19.6z"/>
	<path id="XMLID_83_" class="st2" d="M53.1,17.5l-1.5,8.9h-3.4l1.5-8.9H53.1z M53.7,14.1l-0.4,2.6h-3.4l0.4-2.6H53.7z"/>
	<path id="XMLID_86_" class="st2" d="M57.6,26.6c-1.2,0-2.3-0.4-3.1-1.1s-1.3-1.7-1.3-3c0-1.5,0.5-2.8,1.5-3.8s2.2-1.5,3.7-1.5
		c1.4,0,2.4,0.4,3.2,1.2s1.2,1.7,1.2,2.9c0,1.7-0.5,3-1.5,3.9S59,26.6,57.6,26.6z M57.8,24.5c0.6,0,1-0.5,1.3-1.4s0.3-1.7,0.3-2.3
		c0-0.9-0.3-1.4-1-1.4c-0.6,0-1,0.5-1.3,1.4s-0.3,1.7-0.3,2.3C56.7,24,57.1,24.5,57.8,24.5z"/>
	<path id="XMLID_89_" class="st2" d="M64.5,17.5h3.1l-0.2,1.4c0.2-0.6,0.6-1,1.2-1.3s1.1-0.4,1.7-0.4c0.8,0,1.4,0.2,1.8,0.6
		s0.7,0.9,0.7,1.6c0,0.3,0,0.6-0.1,0.9l-1,6.1h-3.4l0.9-5.3c0.1-0.3,0.1-0.6,0.1-0.7c0-0.5-0.3-0.7-0.8-0.7c-0.7,0-1.1,0.5-1.3,1.4
		l-0.9,5.3H63L64.5,17.5z"/>
	<path id="XMLID_91_" class="st0" d="M7.8,30.1l-1.6,9.3H2.7l1.6-9.3H1.7l0.5-2.8h8.7l-0.5,2.8H7.8z"/>
	<path id="XMLID_93_" class="st2" d="M10.2,30.5h3l-0.4,2.1c0.6-1.6,1.6-2.4,2.8-2.4c0.1,0,0.2,0,0.4,0l-0.4,3.2c-0.3,0-0.5,0-0.6,0
		c-0.7,0-1.3,0.2-1.6,0.5c-0.3,0.3-0.6,0.9-0.7,1.8l-0.6,3.6H8.7L10.2,30.5z"/>
	<path id="XMLID_95_" class="st2" d="M24.3,39.4h-3.5c0-0.2,0-0.3,0-0.4c0-0.3,0-0.7,0.1-1.1c-0.7,1.1-1.7,1.7-2.9,1.7
		c-0.8,0-1.5-0.2-2-0.7s-0.8-1.1-0.8-1.8c0-0.5,0.1-1,0.4-1.5c0.3-0.5,0.7-0.8,1.2-1.1c0.5-0.3,1-0.4,1.6-0.5
		c0.5-0.1,1.6-0.2,3.2-0.3c0.1-0.2,0.1-0.4,0.1-0.5c0-0.5-0.3-0.7-1-0.7c-0.7,0-1.2,0.3-1.5,1l-2.9-0.6c0.7-1.6,2.3-2.5,4.8-2.5
		c1.3,0,2.3,0.2,3,0.7s1.1,1.1,1.1,1.9c0,0.4-0.2,1.7-0.6,4c-0.2,0.9-0.2,1.4-0.2,1.7C24.2,38.8,24.2,39.1,24.3,39.4z M21.2,35.2
		c-1.6,0.1-2.4,0.6-2.4,1.5c0,0.5,0.3,0.7,0.8,0.7c0.3,0,0.7-0.1,1-0.4C20.9,36.7,21.1,36.1,21.2,35.2z"/>
	<path id="XMLID_98_" class="st2" d="M31.4,35.9l2.7,0.7c-0.5,1.1-1.1,1.9-1.9,2.4s-1.6,0.7-2.4,0.7c-1.2,0-2.2-0.4-3-1.2
		c-0.8-0.8-1.2-1.8-1.2-3c0-1.4,0.5-2.6,1.4-3.7s2.1-1.6,3.6-1.6c1.1,0,2,0.3,2.8,1s1.1,1.5,1.1,2.5l-3,0.4c0-1-0.3-1.4-1-1.4
		c-0.6,0-1,0.4-1.2,1.2s-0.4,1.5-0.4,2.1c0,0.9,0.3,1.3,1,1.3C30.7,37.2,31.2,36.8,31.4,35.9z"/>
	<path id="XMLID_100_" class="st2" d="M45.3,30.5l-1.5,1.4c-0.9,0.8-1.5,1.3-1.8,1.7l2.1,5.8h-3.4l-1.2-3.8L37.9,37l-0.4,2.4h-3.1
		l2-12h3.1L38.4,34l0.6-0.6c0.2-0.2,0.4-0.4,0.5-0.5l2.6-2.4H45.3z"/>
	<path id="XMLID_102_" class="st2" d="M53.9,35.6h-6.1c0,0.2,0,0.4,0,0.5c0,0.4,0.1,0.7,0.4,0.9s0.6,0.3,0.9,0.3
		c0.7,0,1.2-0.4,1.5-1.1l3,0.5c-0.4,0.9-1,1.6-1.9,2.1c-0.9,0.5-1.8,0.8-2.9,0.8c-1.3,0-2.4-0.4-3.2-1.1s-1.2-1.8-1.2-3.1
		c0-1.4,0.5-2.6,1.5-3.6s2.2-1.5,3.8-1.5c1.3,0,2.4,0.4,3.2,1.2s1.2,1.8,1.2,3.1C54,34.9,53.9,35.2,53.9,35.6z M50.7,33.9
		c0-0.2,0-0.3,0-0.4c0-0.3-0.1-0.6-0.3-0.8s-0.5-0.4-0.8-0.4c-0.4,0-0.7,0.1-1,0.4s-0.5,0.7-0.6,1.2H50.7z"/>
	<path id="XMLID_105_" class="st2" d="M55.6,30.5h3l-0.4,2.1c0.6-1.6,1.6-2.4,2.8-2.4c0.1,0,0.2,0,0.4,0l-0.4,3.2
		c-0.3,0-0.5,0-0.6,0c-0.7,0-1.3,0.2-1.6,0.5c-0.3,0.3-0.6,0.9-0.7,1.8l-0.6,3.6h-3.4L55.6,30.5z"/>
</g>
</svg>
